<mxfile host="app.diagrams.net" modified="2024-04-06T05:22:37.325Z" agent="Mozilla/5.0 (Windows NT 10.0; Win64; x64) AppleWebKit/537.36 (KHTML, like Gecko) Chrome/123.0.0.0 Safari/537.36" etag="zaNqllVz4Sk4oQNZSkwl" version="24.2.2" type="device">
  <diagram name="Page-1" id="s1i2O5RTthPBRt_rptF7">
    <mxGraphModel dx="1434" dy="772" grid="1" gridSize="10" guides="1" tooltips="1" connect="1" arrows="1" fold="1" page="1" pageScale="1" pageWidth="850" pageHeight="1100" math="0" shadow="0">
      <root>
        <mxCell id="0" />
        <mxCell id="1" parent="0" />
        <mxCell id="Wp4TnbPNV_iMq6yFdvec-34" value="" style="rounded=0;whiteSpace=wrap;html=1;strokeColor=none;" vertex="1" parent="1">
          <mxGeometry x="160" y="80" width="580" height="800" as="geometry" />
        </mxCell>
        <mxCell id="Wp4TnbPNV_iMq6yFdvec-27" value="" style="rounded=0;whiteSpace=wrap;html=1;" vertex="1" parent="1">
          <mxGeometry x="300" y="150" width="420" height="690" as="geometry" />
        </mxCell>
        <mxCell id="Wp4TnbPNV_iMq6yFdvec-1" value="" style="rounded=0;whiteSpace=wrap;html=1;" vertex="1" parent="1">
          <mxGeometry x="330" y="170" width="350" height="120" as="geometry" />
        </mxCell>
        <mxCell id="Wp4TnbPNV_iMq6yFdvec-3" value="" style="rounded=0;whiteSpace=wrap;html=1;" vertex="1" parent="1">
          <mxGeometry x="330" y="690" width="350" height="120" as="geometry" />
        </mxCell>
        <mxCell id="Wp4TnbPNV_iMq6yFdvec-4" value="Database" style="shape=cylinder3;whiteSpace=wrap;html=1;boundedLbl=1;backgroundOutline=1;size=15;" vertex="1" parent="1">
          <mxGeometry x="370" y="740" width="60" height="60" as="geometry" />
        </mxCell>
        <mxCell id="Wp4TnbPNV_iMq6yFdvec-5" value="Database" style="shape=cylinder3;whiteSpace=wrap;html=1;boundedLbl=1;backgroundOutline=1;size=15;" vertex="1" parent="1">
          <mxGeometry x="480" y="740" width="60" height="60" as="geometry" />
        </mxCell>
        <mxCell id="Wp4TnbPNV_iMq6yFdvec-6" value="Database" style="shape=cylinder3;whiteSpace=wrap;html=1;boundedLbl=1;backgroundOutline=1;size=15;" vertex="1" parent="1">
          <mxGeometry x="590" y="740" width="60" height="60" as="geometry" />
        </mxCell>
        <mxCell id="Wp4TnbPNV_iMq6yFdvec-7" value="" style="rounded=1;whiteSpace=wrap;html=1;" vertex="1" parent="1">
          <mxGeometry x="330" y="372" width="350" height="240" as="geometry" />
        </mxCell>
        <mxCell id="Wp4TnbPNV_iMq6yFdvec-9" value="" style="rounded=0;whiteSpace=wrap;html=1;" vertex="1" parent="1">
          <mxGeometry x="380" y="392" width="270" height="200" as="geometry" />
        </mxCell>
        <mxCell id="Wp4TnbPNV_iMq6yFdvec-10" value="Presentation&lt;div&gt;Layer&lt;/div&gt;" style="rounded=0;whiteSpace=wrap;html=1;" vertex="1" parent="1">
          <mxGeometry x="419" y="403" width="190" height="40" as="geometry" />
        </mxCell>
        <mxCell id="Wp4TnbPNV_iMq6yFdvec-11" value="Service Layer" style="rounded=0;whiteSpace=wrap;html=1;" vertex="1" parent="1">
          <mxGeometry x="419" y="472" width="190" height="40" as="geometry" />
        </mxCell>
        <mxCell id="Wp4TnbPNV_iMq6yFdvec-12" value="Data Access Layer" style="rounded=0;whiteSpace=wrap;html=1;" vertex="1" parent="1">
          <mxGeometry x="419" y="542" width="190" height="40" as="geometry" />
        </mxCell>
        <mxCell id="Wp4TnbPNV_iMq6yFdvec-13" value="&lt;font size=&quot;1&quot; style=&quot;&quot;&gt;&lt;b style=&quot;font-size: 13px;&quot;&gt;Spring Boot&lt;/b&gt;&lt;/font&gt;" style="rounded=0;whiteSpace=wrap;html=1;textDirection=vertical-lr;" vertex="1" parent="1">
          <mxGeometry x="640" y="422" width="20" height="130" as="geometry" />
        </mxCell>
        <mxCell id="Wp4TnbPNV_iMq6yFdvec-15" value="" style="rounded=0;whiteSpace=wrap;html=1;" vertex="1" parent="1">
          <mxGeometry x="380" y="212.5" width="260" height="57.5" as="geometry" />
        </mxCell>
        <mxCell id="Wp4TnbPNV_iMq6yFdvec-14" value="Angular Framework" style="rounded=0;whiteSpace=wrap;html=1;" vertex="1" parent="1">
          <mxGeometry x="450" y="217.5" width="120" height="25" as="geometry" />
        </mxCell>
        <mxCell id="Wp4TnbPNV_iMq6yFdvec-8" value="Single Page Application" style="rounded=0;whiteSpace=wrap;html=1;strokeWidth=0;strokeColor=none;" vertex="1" parent="1">
          <mxGeometry x="420" y="250" width="180" height="20" as="geometry" />
        </mxCell>
        <mxCell id="Wp4TnbPNV_iMq6yFdvec-16" value="Application Server" style="rounded=0;whiteSpace=wrap;html=1;strokeWidth=0;strokeColor=none;" vertex="1" parent="1">
          <mxGeometry x="421" y="592" width="180" height="20" as="geometry" />
        </mxCell>
        <mxCell id="Wp4TnbPNV_iMq6yFdvec-17" value="Database" style="rounded=0;whiteSpace=wrap;html=1;strokeWidth=0;strokeColor=none;" vertex="1" parent="1">
          <mxGeometry x="430" y="700" width="180" height="20" as="geometry" />
        </mxCell>
        <mxCell id="Wp4TnbPNV_iMq6yFdvec-19" value="" style="shape=flexArrow;endArrow=classic;startArrow=classic;html=1;rounded=0;startWidth=22;startSize=5.33;" edge="1" parent="1">
          <mxGeometry width="100" height="100" relative="1" as="geometry">
            <mxPoint x="530" y="372" as="sourcePoint" />
            <mxPoint x="530" y="290" as="targetPoint" />
          </mxGeometry>
        </mxCell>
        <mxCell id="Wp4TnbPNV_iMq6yFdvec-20" value="JSON" style="edgeLabel;html=1;align=center;verticalAlign=middle;resizable=0;points=[];textDirection=vertical-lr;" vertex="1" connectable="0" parent="Wp4TnbPNV_iMq6yFdvec-19">
          <mxGeometry x="0.0488" y="1" relative="1" as="geometry">
            <mxPoint as="offset" />
          </mxGeometry>
        </mxCell>
        <mxCell id="Wp4TnbPNV_iMq6yFdvec-21" value="" style="shape=flexArrow;endArrow=classic;startArrow=classic;html=1;rounded=0;startWidth=22;startSize=5.33;" edge="1" parent="1">
          <mxGeometry width="100" height="100" relative="1" as="geometry">
            <mxPoint x="530" y="692" as="sourcePoint" />
            <mxPoint x="530" y="610" as="targetPoint" />
          </mxGeometry>
        </mxCell>
        <mxCell id="Wp4TnbPNV_iMq6yFdvec-23" value="" style="endArrow=classic;startArrow=classic;html=1;rounded=0;entryX=0.542;entryY=0.025;entryDx=0;entryDy=0;entryPerimeter=0;exitX=0.547;exitY=1.025;exitDx=0;exitDy=0;exitPerimeter=0;" edge="1" parent="1" source="Wp4TnbPNV_iMq6yFdvec-11" target="Wp4TnbPNV_iMq6yFdvec-12">
          <mxGeometry width="50" height="50" relative="1" as="geometry">
            <mxPoint x="520" y="520" as="sourcePoint" />
            <mxPoint x="570" y="470" as="targetPoint" />
          </mxGeometry>
        </mxCell>
        <mxCell id="Wp4TnbPNV_iMq6yFdvec-25" value="" style="endArrow=classic;startArrow=classic;html=1;rounded=0;entryX=0.542;entryY=0.025;entryDx=0;entryDy=0;entryPerimeter=0;exitX=0.547;exitY=1.025;exitDx=0;exitDy=0;exitPerimeter=0;" edge="1" parent="1">
          <mxGeometry width="50" height="50" relative="1" as="geometry">
            <mxPoint x="522" y="443" as="sourcePoint" />
            <mxPoint x="521" y="473" as="targetPoint" />
          </mxGeometry>
        </mxCell>
        <mxCell id="Wp4TnbPNV_iMq6yFdvec-28" value="LOGICAL TIER" style="text;html=1;align=center;verticalAlign=middle;resizable=0;points=[];autosize=1;strokeColor=none;fillColor=none;" vertex="1" parent="1">
          <mxGeometry x="405" y="118" width="110" height="30" as="geometry" />
        </mxCell>
        <mxCell id="Wp4TnbPNV_iMq6yFdvec-29" value="PHYSICAL TIER" style="text;html=1;align=center;verticalAlign=middle;resizable=0;points=[];autosize=1;strokeColor=none;fillColor=none;" vertex="1" parent="1">
          <mxGeometry x="170" y="130" width="110" height="30" as="geometry" />
        </mxCell>
        <mxCell id="Wp4TnbPNV_iMq6yFdvec-30" value="Client Tier" style="text;html=1;align=center;verticalAlign=middle;resizable=0;points=[];autosize=1;strokeColor=none;fillColor=none;" vertex="1" parent="1">
          <mxGeometry x="200" y="220" width="80" height="30" as="geometry" />
        </mxCell>
        <mxCell id="Wp4TnbPNV_iMq6yFdvec-31" value="Middle Tier" style="text;html=1;align=center;verticalAlign=middle;resizable=0;points=[];autosize=1;strokeColor=none;fillColor=none;" vertex="1" parent="1">
          <mxGeometry x="200" y="440" width="80" height="30" as="geometry" />
        </mxCell>
        <mxCell id="Wp4TnbPNV_iMq6yFdvec-32" value="Data Tier" style="text;html=1;align=center;verticalAlign=middle;resizable=0;points=[];autosize=1;strokeColor=none;fillColor=none;" vertex="1" parent="1">
          <mxGeometry x="210" y="735" width="70" height="30" as="geometry" />
        </mxCell>
        <mxCell id="Wp4TnbPNV_iMq6yFdvec-33" value="" style="endArrow=none;html=1;rounded=0;" edge="1" parent="1">
          <mxGeometry width="50" height="50" relative="1" as="geometry">
            <mxPoint x="280" y="840" as="sourcePoint" />
            <mxPoint x="280" y="120" as="targetPoint" />
          </mxGeometry>
        </mxCell>
      </root>
    </mxGraphModel>
  </diagram>
</mxfile>
